# xmcd
#
# Track frame offsets:
#	150
#	9160
#	21660
#	32867
#	45297
#	56657
#	64660
#	75410
#	86580
#	96652
#	111387
#	124382
#	131795
#	147612
#	160415
#	172685
#
# Disc length: 2448 seconds
#
# Revision: 0
# Processed by: cddbd v1.5.1PL0 Copyright (c) Steve Scherf et al.
# Submitted via: audiograbber 1.83.01
#
DISCID=dd098e10
DTITLE=Various Artist - Country Heartbreakers
DYEAR=1900
DGENRE=
TTITLE0=Johnny Cash - Guess things happen that way
TTITLE1=Alabama - Loving you is killing me
TTITLE2=Patsy Cline - I cried all the way to the alter
TTITLE3=George Jones - If my heart had windows
TTITLE4=Hank Locklin - PLease help me I'm falling
TTITLE5=Willie Nelson - You wouldn't cross the street to say goodbye
TTITLE6=Dolly Parton - It wasnt god who made honky tonk angels
TTITLE7=Johnny Paycheck - Heartbreak Tennessee
TTITLE8=Marty Robbins - Lonely Old Bunkhouse
TTITLE9=B.J. Thomas - I'm so lonseome I could cry
TTITLE10=Just Stone - Hasta Manana
TTITLE11=Conway Twitty - Treat me mean treat me cruel
TTITLE12=Don Williams - Tears
TTITLE13=Charlie Rich - My heart cries for you
TTITLE14=Gene Autry - I hang my head and cry
TTITLE15=Ronnie Milsap - Win my love and break my heart
EXTD=
EXTT0=
EXTT1=
EXTT2=
EXTT3=
EXTT4=
EXTT5=
EXTT6=
EXTT7=
EXTT8=
EXTT9=
EXTT10=
EXTT11=
EXTT12=
EXTT13=
EXTT14=
EXTT15=
PLAYORDER=
